<svg xmlns="http://www.w3.org/2000/svg" width="400" height="400" viewBox="0 0 371 371"><g transform="translate(-264 -448.556)"><circle cx="185.5" cy="185.5" r="185.5" transform="translate(264 448.556)" fill="#fff"/><g transform="translate(313.65 505.915)"><g transform="translate(22.669 188.112)"><text transform="translate(0 54)" fill="#1d1d1b" font-size="63" font-family="TwCenMT-Regular, Tw Cen MT"><tspan x="0" y="0">A R R I </tspan></text><text transform="translate(193.035 54)" fill="#1d1d1b" font-size="63" font-family="TwCenMT-Regular, Tw Cen MT"><tspan x="0" y="0">S</tspan></text><path d="M16.058-40.545A16.855,16.855,0,0,1,22.6-39.151,13.518,13.518,0,0,1,28.122-34.9l.074.1-4.521,3.623L23.6-31.26A17.3,17.3,0,0,0,20.505-33.9a7.557,7.557,0,0,0-3.97-.858,7.7,7.7,0,0,0-4.608,1.28,3.881,3.881,0,0,0-1.744,3.258,3.976,3.976,0,0,0,1.525,3.05A21.471,21.471,0,0,0,17.021-24.2a38.441,38.441,0,0,1,5.9,3.032A15.2,15.2,0,0,1,26.4-18.058a12.361,12.361,0,0,1,2.031,3.6A12.031,12.031,0,0,1,29.1-10.45a11.34,11.34,0,0,1-3.591,8.419,12.075,12.075,0,0,1-8.684,3.478A14.756,14.756,0,0,1,8.064-1.268,17.087,17.087,0,0,1,2.222-9.4l-.048-.127L7.76-11.1,7.8-11c1.917,4.34,4.891,6.54,8.838,6.54a6.894,6.894,0,0,0,4.777-1.716,5.6,5.6,0,0,0,1.9-4.324,5.877,5.877,0,0,0-1-3.139,8.976,8.976,0,0,0-2.49-2.617,27.008,27.008,0,0,0-4.777-2.38A34.29,34.29,0,0,1,9.966-21.12a13.25,13.25,0,0,1-3.1-2.7,11.481,11.481,0,0,1-1.919-3.123,9.1,9.1,0,0,1-.611-3.334,9.37,9.37,0,0,1,3.426-7.271A12.2,12.2,0,0,1,16.058-40.545Zm11.793,5.7a13.267,13.267,0,0,0-5.351-4.08A16.609,16.609,0,0,0,16.058-40.3a11.959,11.959,0,0,0-8.132,2.936,9.132,9.132,0,0,0-3.342,7.085,8.854,8.854,0,0,0,.593,3.244,11.235,11.235,0,0,0,1.878,3.055A13,13,0,0,0,10.1-21.329a34.055,34.055,0,0,0,5.047,2.462,27.231,27.231,0,0,1,4.824,2.405,9.223,9.223,0,0,1,2.559,2.689A6.12,6.12,0,0,1,23.564-10.5a5.835,5.835,0,0,1-1.979,4.508,7.135,7.135,0,0,1-4.943,1.78,8.757,8.757,0,0,1-5.326-1.678,12.129,12.129,0,0,1-3.7-4.912L2.5-9.361A16.771,16.771,0,0,0,8.209-1.47,14.512,14.512,0,0,0,16.827,1.2a11.835,11.835,0,0,0,8.512-3.408,11.1,11.1,0,0,0,3.515-8.241,11.784,11.784,0,0,0-.653-3.924A12.114,12.114,0,0,0,26.209-17.9a14.95,14.95,0,0,0-3.426-3.063,38.2,38.2,0,0,0-5.86-3.01,21.69,21.69,0,0,1-5.377-3.008,4.213,4.213,0,0,1-1.61-3.237,4.117,4.117,0,0,1,1.847-3.459,7.936,7.936,0,0,1,4.754-1.327,7.789,7.789,0,0,1,4.1.9,17.307,17.307,0,0,1,3.06,2.6Z" transform="translate(193.035 54)"/></g><g transform="translate(0 0)"><path d="M1.381,160.256,0,158.81,129.629,34.972V159.533h-2V39.648Z" transform="translate(-0.69 4.953)"/><path d="M90.36,166.9h-2V0L253.693,165.341l-1.414,1.414L90.36,4.824Z" transform="translate(18.016 -2.41)"/></g></g></g></svg>